<?xml version="1.0" encoding="UTF-8"?>
<svg id="Layer_1" data-name="Layer 1" xmlns="http://www.w3.org/2000/svg" viewBox="0 0 403.45 81.58">
  <defs>
    <style>
      .cls-1 {
        fill: gray;
      }

      .cls-2 {
        fill: #e6e6e6;
      }

      .cls-3 {
        fill: #5480d6;
      }

      .cls-4 {
        fill: #b3b3b3;
      }
    </style>
  </defs>
  <g>
    <path class="cls-1" d="M76.61,46.59v-27.68h16.05v2.27h-13.53v10.42h12.67v2.27h-12.67v10.45h13.8v2.27h-16.32Z"/>
    <path class="cls-1" d="M99.03,25.83l5.35,8.85,5.35-8.85h2.8l-6.68,10.38,6.68,10.38h-2.8l-5.35-8.57-5.35,8.57h-2.78l6.59-10.38-6.59-10.38h2.78Z"/>
    <path class="cls-1" d="M116.4,54.37v-28.54h2.34v3.96h.3c.28-.62.67-1.26,1.18-1.91.5-.65,1.17-1.21,2.01-1.66.83-.45,1.88-.68,3.16-.68,1.71,0,3.21.45,4.5,1.34,1.29.9,2.29,2.15,3.01,3.76.72,1.61,1.07,3.48,1.07,5.61s-.36,4.02-1.08,5.63c-.72,1.61-1.72,2.87-3,3.77-1.28.9-2.77,1.35-4.46,1.35-1.26,0-2.31-.23-3.16-.68s-1.52-1.01-2.04-1.67c-.52-.66-.91-1.31-1.18-1.94h-.22v11.64h-2.42ZM118.78,36.23c0,1.67.25,3.16.75,4.45s1.22,2.31,2.17,3.04c.95.73,2.08,1.1,3.42,1.1s2.54-.38,3.5-1.14c.95-.76,1.68-1.79,2.18-3.09.5-1.3.74-2.75.74-4.36s-.25-3.03-.74-4.31c-.49-1.28-1.21-2.29-2.16-3.05-.95-.75-2.12-1.13-3.52-1.13s-2.5.36-3.45,1.09c-.95.73-1.66,1.73-2.16,3-.49,1.28-.74,2.74-.74,4.4Z"/>
    <path class="cls-1" d="M146.49,47.02c-1.94,0-3.61-.45-5.03-1.36-1.42-.91-2.51-2.16-3.28-3.77-.77-1.61-1.16-3.46-1.16-5.56s.38-3.95,1.16-5.57c.77-1.63,1.84-2.9,3.2-3.82,1.37-.92,2.94-1.38,4.74-1.38,1.13,0,2.21.21,3.26.61,1.05.41,1.98,1.04,2.82,1.88.83.84,1.49,1.9,1.98,3.18.49,1.27.73,2.78.73,4.52v1.19h-16.22v-2.12h13.76c0-1.33-.27-2.53-.8-3.6s-1.28-1.91-2.23-2.53c-.95-.62-2.05-.93-3.29-.93-1.32,0-2.47.35-3.47,1.05-1,.7-1.78,1.63-2.34,2.78-.56,1.15-.85,2.42-.86,3.78v1.27c0,1.65.29,3.09.86,4.32.57,1.23,1.39,2.18,2.44,2.86,1.05.68,2.3,1.01,3.74,1.01.98,0,1.84-.15,2.59-.46.74-.31,1.37-.72,1.88-1.24.51-.52.89-1.09,1.16-1.71l2.28.74c-.32.87-.83,1.68-1.55,2.42-.72.74-1.61,1.33-2.68,1.78-1.07.45-2.29.67-3.68.67Z"/>
    <path class="cls-1" d="M159.05,46.59v-20.76h2.34v3.19h.18c.41-1.04,1.14-1.89,2.17-2.53,1.03-.64,2.2-.97,3.51-.97.2,0,.42,0,.66.01s.45.02.61.03v2.45c-.11-.02-.3-.04-.57-.08s-.56-.05-.88-.05c-1.08,0-2.04.23-2.89.68-.84.46-1.51,1.08-1.99,1.88s-.73,1.72-.73,2.74v13.41h-2.41Z"/>
    <path class="cls-1" d="M172.73,22.27c-.49,0-.91-.17-1.26-.51-.36-.34-.53-.75-.53-1.22s.18-.88.53-1.22c.36-.34.78-.51,1.26-.51s.92.17,1.28.51c.36.34.53.75.53,1.22s-.18.88-.53,1.22c-.36.34-.78.51-1.28.51ZM171.51,46.59v-20.76h2.42v20.76h-2.42Z"/>
    <path class="cls-1" d="M179.16,46.59v-20.76h2.34v3.19h.22c.41-1.07,1.11-1.92,2.07-2.53.97-.62,2.13-.92,3.49-.92,1.43,0,2.61.33,3.53,1.01.92.67,1.62,1.59,2.07,2.76h.18c.47-1.15,1.23-2.07,2.29-2.75,1.06-.68,2.34-1.02,3.86-1.02,1.93,0,3.45.61,4.57,1.82s1.68,2.98,1.68,5.3v13.91h-2.41v-13.91c0-1.64-.42-2.87-1.26-3.69-.84-.82-1.94-1.23-3.31-1.23-1.59,0-2.81.49-3.66,1.46-.86.97-1.28,2.21-1.28,3.7v13.66h-2.46v-14.12c0-1.41-.39-2.54-1.18-3.41-.78-.87-1.89-1.3-3.31-1.3-.96,0-1.81.23-2.57.7-.76.47-1.36,1.12-1.8,1.95-.44.83-.66,1.79-.66,2.87v13.3h-2.41Z"/>
    <path class="cls-1" d="M219.06,47.02c-1.94,0-3.61-.45-5.03-1.36-1.42-.91-2.51-2.16-3.28-3.77-.77-1.61-1.16-3.46-1.16-5.56s.38-3.95,1.16-5.57c.77-1.63,1.84-2.9,3.2-3.82,1.37-.92,2.94-1.38,4.74-1.38,1.13,0,2.21.21,3.26.61,1.05.41,1.98,1.04,2.82,1.88.83.84,1.49,1.9,1.98,3.18.49,1.27.73,2.78.73,4.52v1.19h-16.22v-2.12h13.76c0-1.33-.27-2.53-.8-3.6s-1.28-1.91-2.23-2.53c-.95-.62-2.05-.93-3.29-.93-1.32,0-2.47.35-3.47,1.05-1,.7-1.78,1.63-2.34,2.78-.56,1.15-.85,2.42-.86,3.78v1.27c0,1.65.29,3.09.86,4.32.57,1.23,1.39,2.18,2.44,2.86,1.05.68,2.3,1.01,3.74,1.01.98,0,1.84-.15,2.59-.46.74-.31,1.37-.72,1.88-1.24.51-.52.89-1.09,1.16-1.71l2.28.74c-.32.87-.83,1.68-1.55,2.42-.72.74-1.61,1.33-2.68,1.78-1.07.45-2.29.67-3.68.67Z"/>
    <path class="cls-1" d="M234.02,33.62v12.97h-2.41v-20.76h2.34v3.26h.22c.49-1.06,1.25-1.92,2.28-2.56,1.03-.64,2.31-.97,3.83-.97,1.4,0,2.62.29,3.68.87s1.88,1.43,2.47,2.56c.59,1.13.88,2.51.88,4.15v13.45h-2.41v-13.3c0-1.7-.47-3.05-1.43-4.04-.95-.99-2.22-1.49-3.82-1.49-1.09,0-2.06.23-2.91.7s-1.52,1.14-2.01,2.02c-.49.88-.74,1.92-.74,3.13Z"/>
    <path class="cls-1" d="M260.71,25.83v2.09h-9.91v-2.09h9.91ZM253.9,20.86h2.42v20.31c0,.87.15,1.54.45,2.03.3.49.68.84,1.16,1.04.48.2.99.3,1.53.3.32,0,.58-.02.81-.06.23-.04.42-.08.59-.13l.51,2.18c-.23.09-.52.17-.87.25-.34.08-.77.11-1.27.11-.88,0-1.73-.19-2.55-.58-.82-.39-1.48-.96-2.01-1.73s-.78-1.72-.78-2.85v-20.88Z"/>
    <path class="cls-1" d="M278.59,30.39l-2.2.62c-.22-.62-.52-1.18-.92-1.69-.4-.5-.91-.91-1.55-1.2-.64-.3-1.42-.45-2.36-.45-1.41,0-2.56.33-3.46,1-.9.67-1.35,1.53-1.35,2.58,0,.89.31,1.62.92,2.17.62.55,1.57.99,2.86,1.32l3.14.77c1.74.42,3.04,1.09,3.91,2.01.87.92,1.3,2.07,1.3,3.46,0,1.17-.32,2.21-.97,3.12-.65.91-1.55,1.62-2.71,2.14-1.16.52-2.5.78-4.02.78-2.03,0-3.7-.46-5.01-1.37-1.32-.91-2.16-2.24-2.53-3.97l2.31-.57c.3,1.23.88,2.17,1.75,2.8s2.02.95,3.44.95c1.59,0,2.87-.36,3.82-1.07.96-.72,1.43-1.62,1.43-2.7,0-.84-.28-1.54-.84-2.12s-1.41-.99-2.54-1.26l-3.39-.81c-1.8-.43-3.13-1.12-4-2.05-.87-.94-1.3-2.1-1.3-3.49,0-1.14.31-2.15.93-3.02.62-.87,1.48-1.55,2.57-2.05,1.09-.5,2.33-.74,3.73-.74,1.9,0,3.42.43,4.56,1.29s1.96,2.04,2.47,3.55Z"/>
  </g>
  <g>
    <path class="cls-3" d="M286.09,46.91v-27.68h18v4.2h-12.99v7.51h12.05v4.2h-12.05v7.55h13.09v4.2h-18.11Z"/>
    <path class="cls-3" d="M312.75,34.75v12.16h-4.89v-20.76h4.68v3.53h.24c.48-1.16,1.24-2.09,2.29-2.77,1.05-.68,2.35-1.03,3.9-1.03,1.43,0,2.68.31,3.75.92,1.07.61,1.9,1.5,2.49,2.66.59,1.16.88,2.57.87,4.23v13.22h-4.89v-12.46c0-1.39-.36-2.47-1.07-3.26-.72-.78-1.71-1.18-2.97-1.18-.86,0-1.61.19-2.28.56-.66.37-1.18.91-1.55,1.62-.37.7-.56,1.55-.56,2.55Z"/>
    <path class="cls-3" d="M338.95,55.05c-1.76,0-3.27-.23-4.53-.7-1.26-.47-2.28-1.09-3.04-1.88-.77-.78-1.3-1.64-1.59-2.58l4.41-1.07c.2.37.49.75.86,1.14.38.39.89.72,1.53.99.64.27,1.46.4,2.44.4,1.39,0,2.54-.33,3.45-1,.91-.67,1.37-1.74,1.37-3.23v-3.93h-.24c-.25.5-.62,1.02-1.1,1.55-.48.53-1.12.98-1.91,1.34-.79.36-1.78.54-2.97.54-1.59,0-3.04-.38-4.33-1.13s-2.32-1.88-3.08-3.38c-.76-1.5-1.14-3.38-1.14-5.64s.38-4.21,1.14-5.78c.76-1.57,1.79-2.77,3.09-3.58,1.3-.82,2.74-1.22,4.34-1.22,1.22,0,2.22.21,3.01.61.79.41,1.42.9,1.89,1.47.47.57.82,1.11,1.07,1.61h.27v-3.43h4.83v21.09c0,1.74-.42,3.19-1.27,4.34-.85,1.16-2,2.02-3.47,2.59-1.47.57-3.13.86-5,.86ZM338.99,42.78c1.04,0,1.92-.25,2.65-.76.73-.5,1.28-1.23,1.66-2.18.38-.95.57-2.08.57-3.41s-.19-2.45-.56-3.43c-.37-.98-.92-1.75-1.65-2.29-.73-.54-1.62-.82-2.67-.82s-2,.28-2.73.85-1.28,1.34-1.65,2.33c-.37.99-.55,2.11-.55,3.36s.19,2.38.56,3.33c.37.95.93,1.69,1.66,2.22.73.53,1.64.79,2.71.79Z"/>
    <path class="cls-3" d="M355.03,23.21c-.78,0-1.45-.26-2.01-.78-.55-.52-.83-1.14-.83-1.87s.28-1.37.84-1.88c.56-.52,1.23-.78,2-.78s1.44.26,1.99.78c.55.52.83,1.15.83,1.88s-.28,1.35-.83,1.87c-.55.52-1.22.78-1.99.78ZM352.58,46.91v-20.76h4.89v20.76h-4.89Z"/>
    <path class="cls-3" d="M366.24,34.75v12.16h-4.89v-20.76h4.68v3.53h.24c.48-1.16,1.24-2.09,2.29-2.77,1.05-.68,2.35-1.03,3.9-1.03,1.43,0,2.68.31,3.75.92,1.07.61,1.9,1.5,2.49,2.66.59,1.16.88,2.57.87,4.23v13.22h-4.89v-12.46c0-1.39-.36-2.47-1.07-3.26-.72-.78-1.71-1.18-2.97-1.18-.86,0-1.61.19-2.28.56-.66.37-1.18.91-1.55,1.62-.37.7-.56,1.55-.56,2.55Z"/>
    <path class="cls-3" d="M392.6,47.32c-2.08,0-3.88-.43-5.39-1.3s-2.67-2.1-3.48-3.7c-.81-1.6-1.22-3.48-1.22-5.66s.41-4.01,1.22-5.63,1.96-2.88,3.43-3.78c1.47-.91,3.19-1.36,5.18-1.36,1.28,0,2.49.21,3.63.61,1.14.41,2.15,1.04,3.03,1.9.88.86,1.57,1.94,2.07,3.26.5,1.32.76,2.89.76,4.71v1.5h-17.01v-3.3h12.32c0-.94-.21-1.77-.61-2.51-.4-.73-.95-1.31-1.66-1.74-.71-.42-1.53-.63-2.47-.63-1,0-1.88.24-2.64.72-.76.48-1.34,1.11-1.76,1.89-.42.78-.63,1.63-.64,2.56v2.88c0,1.21.22,2.24.66,3.1s1.06,1.52,1.85,1.97,1.72.68,2.78.68c.71,0,1.36-.1,1.93-.3.58-.2,1.08-.5,1.5-.9.42-.4.74-.89.96-1.47l4.57.51c-.29,1.21-.84,2.26-1.64,3.16-.81.9-1.84,1.59-3.09,2.08s-2.68.74-4.3.74Z"/>
  </g>
  <g>
    <g>
      <path class="cls-1" d="M401.87,73.59c-.07.02-.16.03-.28.05-.12.02-.26.03-.41.03-.21,0-.41-.03-.59-.1s-.33-.19-.45-.38-.17-.48-.17-.86v-5.53h2.07v-1.59h-2.07v-2.41h-1.96v2.41h-1.48v1.57h1.48v5.95c0,.6.14,1.12.41,1.52s.64.71,1.09.9c.45.19.93.29,1.45.28.31,0,.57-.03.78-.07.21-.05.38-.09.48-.14l-.34-1.62Z"/>
      <path class="cls-1" d="M393.76,65.5c-.52-.28-1.12-.43-1.81-.43-.78,0-1.41.16-1.9.48s-.84.74-1.09,1.29h-.12l.07-5h-1.93l-.07,13.41h1.96v-5.96c0-.53.1-.98.31-1.36.21-.38.5-.67.86-.86s.78-.29,1.24-.29c.67,0,1.21.21,1.59.6.38.41.57.98.57,1.72v6.17h1.96v-6.39c0-.84-.14-1.53-.43-2.1-.29-.57-.71-.98-1.22-1.28Z"/>
      <path class="cls-1" d="M384.81,65.21h-1.93v1.64h-.14c-.12-.21-.28-.45-.5-.72-.21-.28-.52-.52-.9-.72s-.9-.31-1.52-.31c-.81,0-1.53.21-2.17.6-.64.41-1.14,1-1.5,1.76s-.55,1.69-.55,2.76.19,1.96.55,2.71c.36.72.88,1.28,1.5,1.65.64.38,1.34.55,2.15.55.62,0,1.12-.1,1.5-.29s.69-.41.91-.67.4-.5.52-.71h.12v1.98c0,.78-.24,1.34-.72,1.71-.48.36-1.1.53-1.84.53-.53,0-.98-.07-1.33-.22s-.62-.33-.81-.55c-.19-.21-.36-.41-.48-.6l-1.69.69c.17.4.45.78.81,1.12s.83.62,1.4.83,1.26.31,2.07.31c.86,0,1.62-.14,2.31-.4s1.22-.67,1.64-1.22c.4-.55.6-1.26.6-2.12v-10.29h0ZM382.57,71.97c-.21.5-.5.88-.9,1.14-.4.26-.86.4-1.43.4s-1.07-.14-1.47-.41-.69-.67-.9-1.17-.31-1.07-.31-1.74.1-1.22.29-1.74.5-.93.88-1.24c.4-.31.88-.45,1.47-.45s1.05.14,1.45.43.69.69.88,1.21.31,1.12.31,1.79c.03.71-.07,1.29-.28,1.79Z"/>
      <rect class="cls-1" x="371.9" y="65.21" width="1.96" height="10.07"/>
      <path class="cls-1" d="M372.88,61.64c-.65,0-1.17.52-1.17,1.17s.52,1.17,1.17,1.17,1.17-.52,1.17-1.17-.53-1.17-1.17-1.17Z"/>
      <path class="cls-1" d="M367.37,69.64l-1.6-.36c-.55-.14-.97-.29-1.21-.5s-.38-.48-.38-.81c0-.4.19-.71.55-.95s.83-.38,1.4-.38c.41,0,.74.07,1.02.19.28.14.48.29.64.5s.28.43.34.65l1.78-.31c-.21-.79-.62-1.41-1.24-1.88-.62-.47-1.48-.71-2.57-.71-.76,0-1.43.12-2.02.38s-1.05.6-1.38,1.05-.5.97-.5,1.55c0,.72.22,1.31.67,1.78.45.47,1.14.81,2.09,1.02l1.71.38c.48.1.84.28,1.07.48.24.21.34.48.34.79,0,.4-.19.72-.59.98-.38.28-.9.4-1.53.4-.59,0-1.07-.12-1.43-.38s-.6-.62-.72-1.12l-1.9.29c.16.9.6,1.59,1.31,2.05.71.48,1.64.72,2.76.72.81,0,1.53-.14,2.14-.4s1.1-.64,1.45-1.1c.34-.47.52-1,.52-1.6,0-.71-.22-1.29-.67-1.74-.41-.43-1.1-.76-2.03-.98Z"/>
      <path class="cls-1" d="M358.77,65.52c-.52-.29-1.12-.43-1.79-.43-.76,0-1.38.16-1.88.48s-.86.76-1.09,1.28h-.12v-1.64h-1.88v10.07h1.96v-5.96c0-.53.1-.98.31-1.36s.48-.67.83-.86.76-.29,1.21-.29c.67,0,1.19.21,1.57.62.38.41.57.98.57,1.71v6.17h1.96v-6.41c0-.83-.14-1.53-.43-2.09-.31-.57-.71-1-1.22-1.28Z"/>
      <rect class="cls-1" x="347.77" y="65.21" width="1.96" height="10.07"/>
      <path class="cls-1" d="M348.75,61.64c-.65,0-1.17.52-1.17,1.17s.52,1.17,1.17,1.17,1.17-.52,1.17-1.17-.52-1.17-1.17-1.17Z"/>
      <path class="cls-1" d="M343.01,62.88c-.93-.52-2.03-.79-3.33-.79h-4.72v1.74h4.62c.97,0,1.76.19,2.41.55.65.38,1.14.91,1.47,1.64s.5,1.59.5,2.62-.17,1.91-.5,2.64-.83,1.28-1.5,1.65c-.65.38-1.5.57-2.5.57h-2.59v-8.29h-1.91v10.03h4.6c1.34,0,2.48-.26,3.41-.79.95-.53,1.67-1.29,2.15-2.28.5-.98.74-2.15.74-3.53s-.24-2.53-.74-3.52c-.48-.97-1.19-1.72-2.12-2.24Z"/>
      <rect class="cls-1" x="330.78" y="62.09" width="1.96" height="13.17"/>
    </g>
    <g>
      <path class="cls-1" d="M306.41,75.48v-13.87h2.02v5.15h.12c.12-.22.29-.47.51-.75.22-.28.53-.53.92-.75.39-.21.91-.32,1.56-.32.84,0,1.59.21,2.25.64.66.42,1.18,1.04,1.55,1.83s.57,1.76.57,2.88-.19,2.09-.56,2.89c-.38.8-.89,1.42-1.54,1.85s-1.4.65-2.24.65c-.63,0-1.15-.11-1.55-.32s-.71-.46-.94-.74c-.23-.29-.4-.54-.52-.76h-.17v1.62h-1.98ZM308.39,70.29c0,.73.11,1.37.32,1.92s.52.98.92,1.29c.4.31.89.46,1.48.46s1.11-.16,1.52-.48c.41-.32.71-.76.92-1.32.21-.55.32-1.18.32-1.88s-.1-1.3-.31-1.85-.51-.98-.92-1.29c-.41-.32-.92-.47-1.53-.47s-1.08.15-1.49.45c-.4.3-.71.72-.92,1.27-.21.54-.31,1.17-.31,1.9Z"/>
      <path class="cls-1" d="M318.8,79.36c-.3,0-.58-.02-.83-.07-.25-.05-.43-.1-.56-.15l.49-1.66c.55.15,1.02.17,1.4.04.38-.13.69-.53.95-1.2l.25-.69-3.8-10.53h2.17l2.63,8.07h.11l2.63-8.07,2.19.02-4.3,11.77c-.2.54-.45.99-.76,1.36s-.67.65-1.1.84-.92.28-1.48.28Z"/>
    </g>
  </g>
  <g>
    <path class="cls-4" d="M38.67,45.69c-.65,0-1.26-.35-1.59-.91l-4.68-7.98h-.61l-4.71,8.03c-.31.53-.89.87-1.51.87h-5.98c-3.21,0-5.85-2.52-6.03-5.69h9.68l4.89-7.88-4.77-7.89h-9.8c.18-3.17,2.81-5.69,6.03-5.69h5.98c.7,0,1.36.38,1.71.98l4.52,7.81h.61l4.56-7.81c.35-.61,1.01-.98,1.71-.98h5.98c3.21,0,5.85,2.52,6.03,5.69h-9.85l-4.76,7.89,4.91,7.88h9.7c-.18,3.17-2.81,5.69-6.03,5.69h-5.98Z"/>
    <rect class="cls-3" x="16.05" y="27.48" width="4.05" height="8.97" transform="translate(50.04 13.89) rotate(90)"/>
    <rect class="cls-3" x="44.17" y="27.48" width="4.05" height="8.97" transform="translate(78.16 -14.23) rotate(90)"/>
  </g>
  <path class="cls-2" d="M60.93,31.61c0-2.23,1.28-4.16,3.15-5.09-.39-2.23-1-4.38-1.82-6.43-2.14.19-4.29-.84-5.44-2.82-1.11-1.93-.97-4.24.18-5.98-1.43-1.71-3.04-3.28-4.8-4.66-1.75,1.23-4.13,1.42-6.11.27-1.93-1.11-2.96-3.19-2.83-5.27-2.07-.76-4.24-1.31-6.49-1.63-.9,1.95-2.87,3.29-5.16,3.29s-4.16-1.28-5.09-3.15c-2.23.39-4.38,1-6.43,1.82.19,2.14-.84,4.29-2.82,5.44-1.93,1.11-4.24.97-5.98-.18-1.71,1.43-3.28,3.04-4.66,4.8,1.23,1.75,1.42,4.13.27,6.11-1.11,1.93-3.19,2.96-5.27,2.83-.76,2.07-1.31,4.24-1.63,6.49,1.95.9,3.29,2.87,3.29,5.16s-1.28,4.16-3.15,5.09c.39,2.23,1,4.38,1.82,6.43,2.14-.19,4.29.84,5.44,2.82,1.11,1.93.97,4.24-.18,5.98,1.43,1.71,3.04,3.28,4.8,4.66,1.75-1.23,4.13-1.42,6.11-.27,1.93,1.11,2.96,3.19,2.83,5.27,2.07.76,4.24,1.31,6.49,1.63.9-1.95,2.87-3.29,5.16-3.29s4.16,1.28,5.09,3.15c2.23-.39,4.38-1,6.43-1.82-.19-2.14.84-4.29,2.82-5.44,1.93-1.11,4.24-.97,5.98.18,1.71-1.43,3.28-3.04,4.66-4.8-1.23-1.75-1.42-4.13-.27-6.11,1.11-1.93,3.19-2.96,5.27-2.83.76-2.07,1.31-4.24,1.63-6.49-1.95-.9-3.29-2.87-3.29-5.16ZM32.11,58.43c-14.53,0-26.32-11.78-26.32-26.32S17.58,5.8,32.11,5.8s26.32,11.78,26.32,26.32-11.78,26.32-26.32,26.32Z"/>
</svg>
