<?xml version="1.0" encoding="UTF-8"?>
<svg id="Layer_1" data-name="Layer 1" xmlns="http://www.w3.org/2000/svg" viewBox="0 0 200 200">
  <defs>
    <style>
      .cls-1 {
        fill: #e6e6e6;
      }

      .cls-2 {
        fill: #5480d6;
      }

      .cls-3 {
        fill: #b3b3b3;
      }
    </style>
  </defs>
  <g>
    <path class="cls-3" d="M119.79,141.02c-1.97,0-3.81-1.06-4.81-2.75l-14.15-24.1h-1.84l-14.23,24.24c-.94,1.61-2.7,2.61-4.57,2.61h-18.05c-9.71,0-17.66-7.62-18.2-17.2h29.23l14.76-23.81-14.4-23.82h-29.6c.54-9.57,8.5-17.2,18.2-17.2h18.05c2.12,0,4.1,1.14,5.16,2.97l13.64,23.59h1.85l13.79-23.6c1.07-1.83,3.05-2.97,5.17-2.97h18.05c9.71,0,17.66,7.62,18.2,17.2h-29.74l-14.38,23.83,14.84,23.81h29.29c-.54,9.57-8.5,17.2-18.2,17.2h-18.05Z"/>
    <rect class="cls-2" x="51.48" y="86.01" width="12.25" height="27.08" transform="translate(157.16 41.95) rotate(90)"/>
    <rect class="cls-2" x="136.4" y="86.01" width="12.25" height="27.08" transform="translate(242.08 -42.97) rotate(90)"/>
  </g>
  <path class="cls-1" d="M187.04,98.47c0-6.73,3.87-12.55,9.5-15.37-1.17-6.74-3.03-13.24-5.5-19.43-6.46.58-12.97-2.53-16.42-8.52-3.36-5.82-2.93-12.79.54-18.05-4.33-5.17-9.19-9.89-14.49-14.08-5.3,3.72-12.49,4.28-18.46.83-5.83-3.37-8.94-9.64-8.56-15.93-6.26-2.29-12.81-3.95-19.59-4.92-2.73,5.87-8.68,9.95-15.58,9.95s-12.55-3.87-15.37-9.5c-6.74,1.17-13.24,3.03-19.43,5.5.58,6.46-2.53,12.97-8.52,16.42-5.82,3.36-12.79,2.93-18.05-.54-5.17,4.33-9.89,9.19-14.08,14.49,3.72,5.3,4.28,12.49.83,18.46-3.37,5.83-9.64,8.94-15.93,8.56-2.29,6.26-3.95,12.81-4.92,19.59,5.87,2.73,9.95,8.68,9.95,15.58s-3.87,12.55-9.5,15.37c1.17,6.74,3.03,13.24,5.5,19.43,6.46-.58,12.97,2.53,16.42,8.52,3.36,5.82,2.93,12.79-.54,18.05,4.33,5.17,9.19,9.89,14.49,14.08,5.3-3.72,12.49-4.28,18.46-.83,5.83,3.37,8.94,9.64,8.56,15.93,6.26,2.29,12.81,3.95,19.59,4.92,2.73-5.87,8.68-9.95,15.58-9.95s12.55,3.87,15.37,9.5c6.74-1.17,13.24-3.03,19.43-5.5-.58-6.46,2.53-12.97,8.52-16.42,5.82-3.36,12.79-2.93,18.05.54,5.17-4.33,9.89-9.19,14.08-14.49-3.72-5.3-4.28-12.49-.83-18.46,3.37-5.83,9.64-8.94,15.93-8.56,2.29-6.26,3.95-12.81,4.92-19.59-5.87-2.73-9.95-8.68-9.95-15.58ZM100,179.48c-43.9,0-79.48-35.59-79.48-79.48S56.1,20.52,100,20.52s79.48,35.59,79.48,79.48-35.59,79.48-79.48,79.48Z"/>
</svg>
